HIERARCHY
ROOT Hips
{
  OFFSET 0.000000 0.000000 0.000000
  CHANNELS 6 Xposition Yposition Zposition Xrotation Yrotation Zrotation
  JOINT Spine
  {
    OFFSET -0.253123 22.424799 -5.826726
    CHANNELS 3 Xrotation Yrotation Zrotation
    JOINT Chest
    {
      OFFSET -0.253123 22.424799 -5.826726
      CHANNELS 3 Xrotation Yrotation Zrotation
      JOINT Neck
      {
        OFFSET -0.414624 8.444968 -3.906957
        CHANNELS 3 Xrotation Yrotation Zrotation
        JOINT Head
        {
          OFFSET 1.548801 7.462384 -7.473342
          CHANNELS 3 Xrotation Yrotation Zrotation
          End Site
          {
            OFFSET 0.464640 2.238715 -2.242003
          }
        }
      }
      JOINT LeftShoulder
      {
        OFFSET 13.662297 0.510576 9.925918
        CHANNELS 3 Xrotation Yrotation Zrotation
        JOINT LeftArm
        {
          OFFSET 2.909997 -23.619063 6.772514
          CHANNELS 3 Xrotation Yrotation Zrotation
          JOINT LeftForeArm
          {
            OFFSET 10.595922 -20.254781 -9.669280
            CHANNELS 3 Xrotation Yrotation Zrotation
            JOINT LeftHand
            {
              OFFSET 1.581981 -5.350896 -2.487129
              CHANNELS 3 Xrotation Yrotation Zrotation
              End Site
              {
                OFFSET 0.474594 -1.605269 -0.746139
              }
            }
          }
        }
      }
      JOINT RightShoulder
      {
        OFFSET -13.662297 -0.510576 -9.925918
        CHANNELS 3 Xrotation Yrotation Zrotation
        JOINT RightArm
        {
          OFFSET -4.505415 -25.725713 1.183158
          CHANNELS 3 Xrotation Yrotation Zrotation
          JOINT RightForeArm
          {
            OFFSET 1.284607 -25.866169 -6.340377
            CHANNELS 3 Xrotation Yrotation Zrotation
            JOINT RightHand
            {
              OFFSET 1.107533 -5.748622 -2.637041
              CHANNELS 3 Xrotation Yrotation Zrotation
              End Site
              {
                OFFSET 0.332260 -1.724587 -0.791112
              }
            }
          }
        }
      }
    }
  }
  JOINT LeftUpLeg
  {
    OFFSET 7.835943 -0.406958 8.407790
    CHANNELS 3 Xrotation Yrotation Zrotation
    JOINT LeftLeg
    {
      OFFSET -10.219194 -43.459642 4.926588
      CHANNELS 3 Xrotation Yrotation Zrotation
      JOINT LeftFoot
      {
        OFFSET -2.855798 -40.158022 7.920695
        CHANNELS 3 Xrotation Yrotation Zrotation
        End Site
        {
          OFFSET -0.856739 -12.047407 2.376208
        }
      }
    }
  }
  JOINT RightUpLeg
  {
    OFFSET -7.835943 0.406958 -8.407790
    CHANNELS 3 Xrotation Yrotation Zrotation
    JOINT RightLeg
    {
      OFFSET 16.076752 -38.072424 -7.886398
      CHANNELS 3 Xrotation Yrotation Zrotation
      JOINT RightFoot
      {
        OFFSET 13.657580 -42.081873 -7.100000
        CHANNELS 3 Xrotation Yrotation Zrotation
        End Site
        {
          OFFSET 4.097274 -12.624562 -2.130000
        }
      }
    }
  }
}
MOTION
Frames: 17
Frame Time: 0.083333
1.317324 60.044495 2.114183 5.271002 0.466742 2.008439 0.000000 0.000000 0.000000 -2.258441 -1.116939 -4.527115 3.456732 -3.916296 -3.135824 5.000000 0.000000 0.000000 0.000000 0.000000 0.000000 0.000000 0.000000 0.000000 0.000000 0.000000 0.000000 0.000000 0.000000 0.000000 0.405307 0.456836 17.966391 -15.521013 4.005939 -11.597302 -12.405616 -23.929100 98.140204 0.000000 0.000000 0.000000 17.723443 -7.818359 13.563378 -18.793528 16.812790 13.935955 0.000000 0.000000 0.000000 -11.114572 1.484562 -28.941049 -9.059536 -13.952211 13.618251 0.000000 0.000000 0.000000
3.016868 60.259415 3.897264 5.344769 0.469057 2.034002 0.000000 0.000000 0.000000 -2.321353 -1.110766 -4.554189 3.463895 -3.920518 -3.143757 5.000000 0.000000 0.000000 0.000000 0.000000 0.000000 0.000000 0.000000 0.000000 0.000000 0.000000 0.000000 0.000000 0.000000 0.000000 0.456001 0.387925 18.087200 -16.108782 4.252320 -11.592743 -7.463180 -27.575935 92.655801 0.000000 0.000000 0.000000 16.900267 -7.688394 13.521372 -18.146669 16.403800 13.376079 0.000000 0.000000 0.000000 -11.631894 1.605142 -29.322446 -9.271185 -14.317013 14.568441 0.000000 0.000000 0.000000
7.456034 60.424540 6.095158 5.346903 0.469175 2.035176 0.000000 0.000000 0.000000 -2.323103 -1.110554 -4.555409 3.464089 -3.920674 -3.144042 5.000000 0.000000 0.000000 0.000000 0.000000 0.000000 0.000000 0.000000 0.000000 0.000000 0.000000 0.000000 0.000000 0.000000 0.000000 2.698259 -0.452266 18.068693 -18.938815 5.945175 -11.796138 -17.928026 -14.364399 97.032373 0.000000 0.000000 0.000000 10.324439 -7.387925 13.246395 -14.003672 13.585209 7.388623 0.000000 0.000000 0.000000 -16.475711 2.073136 -27.551830 -6.618124 -9.882483 0.669818 0.000000 0.000000 0.000000
12.011575 60.371667 6.479562 10.934136 0.550145 2.965623 0.000000 0.000000 0.000000 -7.477024 -0.760456 -5.431013 3.440466 -3.989704 -3.269942 5.000000 0.000000 0.000000 0.000000 0.000000 0.000000 0.000000 0.000000 0.000000 0.000000 0.000000 0.000000 0.000000 0.000000 0.000000 4.325309 -1.321474 18.444655 -23.403558 8.101029 -12.063750 -20.186847 -11.999136 92.633776 0.000000 0.000000 0.000000 1.532751 -6.204137 10.402216 -7.946702 9.042654 1.662461 0.000000 0.000000 0.000000 -22.195132 2.909045 -28.965603 -6.364430 -9.254404 -5.724851 0.000000 0.000000 0.000000
14.840064 60.167794 6.173399 16.817098 0.706540 4.837134 0.000000 0.000000 0.000000 -12.295979 -0.256694 -7.458238 4.203294 -4.403451 -4.007709 5.000000 0.000000 0.000000 0.000000 0.000000 0.000000 0.000000 0.000000 0.000000 0.000000 0.000000 0.000000 0.000000 0.000000 0.000000 4.823779 -1.454296 17.424366 -22.798601 7.766518 -11.809459 -17.998014 -13.938922 92.236715 0.000000 0.000000 0.000000 -1.491662 -4.869201 4.045085 -6.334952 6.576327 3.137174 0.000000 0.000000 0.000000 -22.941733 2.738085 -29.743242 -7.988828 -10.718987 -12.656888 0.000000 0.000000 0.000000
16.426320 60.234897 6.094786 16.628034 0.941459 6.913726 0.000000 0.000000 0.000000 -11.902990 -0.104005 -9.676130 4.571152 -4.606849 -4.436060 5.000000 0.000000 0.000000 0.000000 0.000000 0.000000 0.000000 0.000000 0.000000 0.000000 0.000000 0.000000 0.000000 0.000000 0.000000 6.417932 -1.566683 14.872520 -19.342085 6.448075 -9.817696 75.591725 -25.041646 24.702142 0.000000 0.000000 0.000000 -4.873216 -3.009943 -0.544890 -3.865034 4.168220 4.104063 0.000000 0.000000 0.000000 -22.593689 1.824908 -26.035273 -11.005601 -12.442152 -21.113063 0.000000 0.000000 0.000000
17.230102 60.805537 6.072808 15.602783 1.086493 7.828062 0.000000 0.000000 0.000000 -11.313311 -0.169561 -10.593043 4.478005 -4.458055 -4.219573 5.000000 0.000000 0.000000 0.000000 0.000000 0.000000 0.000000 0.000000 0.000000 0.000000 0.000000 0.000000 0.000000 0.000000 0.000000 7.957841 -1.321926 11.729329 -11.640113 4.225511 -7.898496 78.535361 -22.302135 22.178000 0.000000 0.000000 0.000000 -4.640045 -2.174038 -0.045929 -0.614900 2.433916 2.229378 0.000000 0.000000 0.000000 -19.923346 -0.223393 -16.278584 -12.125487 -9.476430 -29.185850 0.000000 0.000000 0.000000
18.507838 61.245972 5.707542 12.674114 1.065945 6.703987 0.000000 0.000000 0.000000 -9.711019 -0.635931 -9.360566 3.732529 -3.775089 -3.116551 5.000000 0.000000 0.000000 0.000000 0.000000 0.000000 0.000000 0.000000 0.000000 0.000000 0.000000 0.000000 0.000000 0.000000 0.000000 6.565235 -0.781253 7.517445 -9.206003 2.504010 -4.694780 81.885715 -17.694141 19.952979 0.000000 0.000000 0.000000 -0.970861 -2.258033 2.386612 1.250383 1.653015 0.964221 0.000000 0.000000 0.000000 -14.786095 -1.674973 -9.430910 -7.103660 -2.363934 -22.588562 0.000000 0.000000 0.000000
20.882983 61.069725 4.177825 8.148819 0.939705 4.628667 0.000000 0.000000 0.000000 -6.067768 -1.143089 -6.797531 1.946644 -2.944519 -1.782194 5.000000 0.000000 0.000000 0.000000 0.000000 0.000000 0.000000 0.000000 0.000000 -3.177546 -22.025736 61.869825 0.000000 0.000000 0.000000 4.751412 -0.666323 3.501382 -7.598064 1.485129 -1.700754 84.448188 -14.381708 17.805700 0.000000 0.000000 0.000000 -0.351140 -2.002213 3.465976 1.138989 1.645285 1.426866 0.000000 0.000000 0.000000 -11.164738 -0.978562 -7.082898 -2.766016 0.086775 -11.063196 0.000000 0.000000 0.000000
23.805210 60.647898 1.405726 7.310489 0.653625 2.960889 0.000000 0.000000 0.000000 -5.351065 -0.823021 -4.377098 2.012211 -2.651974 -1.747867 5.000000 0.000000 0.000000 0.000000 0.000000 0.000000 0.000000 0.000000 0.000000 -6.637119 -21.531933 63.366501 0.000000 0.000000 0.000000 2.566329 -0.399604 1.776650 -3.649327 0.779435 -0.497387 87.338914 -9.047452 15.630890 0.000000 0.000000 0.000000 -2.055032 -1.332948 3.518359 1.100675 0.988680 -0.988890 0.000000 0.000000 0.000000 -11.859514 -1.512740 -3.871943 0.443318 0.656615 -1.387297 0.000000 0.000000 0.000000
25.773483 60.785915 -0.773373 7.521283 0.426430 1.805499 0.000000 0.000000 0.000000 -5.690754 -0.565269 -2.869270 1.767415 -2.293889 -1.468193 5.000000 0.000000 0.000000 0.000000 0.000000 0.000000 0.000000 0.000000 0.000000 -7.633127 -20.855628 62.390855 0.000000 0.000000 0.000000 1.337727 -0.250879 1.090011 -2.491325 0.547825 -0.187949 89.901770 -3.099108 13.743136 0.000000 0.000000 0.000000 -3.520960 -0.737066 3.481174 0.572164 0.441794 -2.588423 0.000000 0.000000 0.000000 -9.247531 -0.953610 -1.105059 1.320496 0.870996 -0.792747 0.000000 0.000000 0.000000
27.690091 61.012033 -2.280008 7.198051 0.255942 0.901293 0.000000 0.000000 0.000000 -5.446097 -0.437297 -1.790672 1.309331 -1.889012 -1.066966 5.000000 0.000000 0.000000 0.000000 0.000000 0.000000 0.000000 0.000000 0.000000 0.507649 -21.792198 57.432989 0.000000 0.000000 0.000000 0.531107 -0.144279 0.866515 -2.783757 0.427827 -0.312058 91.075760 0.162254 12.784918 0.000000 0.000000 0.000000 -5.086667 -0.454209 1.804549 0.097702 -0.098867 -3.547412 0.000000 0.000000 0.000000 -4.505096 0.469987 2.112232 -1.816766 0.582594 -6.941931 0.000000 0.000000 0.000000
30.113750 61.022137 -7.076672 7.263830 0.147369 0.345512 0.000000 0.000000 0.000000 -5.605276 -0.339273 -1.116396 1.207773 -1.615046 -0.825366 5.000000 0.000000 0.000000 0.000000 0.000000 0.000000 0.000000 0.000000 0.000000 20.580685 -21.708673 44.870656 0.000000 0.000000 0.000000 1.056725 -0.291712 0.616280 -3.144998 0.513255 -0.467696 0.000000 0.000000 0.000000 0.000000 0.000000 0.000000 -5.347078 -0.470141 -2.009441 0.621311 -0.889275 -4.900844 0.000000 0.000000 0.000000 -2.917454 0.390605 3.059385 -6.153102 0.301463 -12.815391 0.000000 0.000000 0.000000
33.354391 60.721168 -15.453719 6.081424 0.135954 0.331232 0.000000 0.000000 0.000000 -4.658204 -0.241029 -0.832250 0.731653 -1.219380 -0.606333 5.000000 0.000000 0.000000 0.000000 0.000000 0.000000 0.000000 0.000000 0.000000 26.161456 -20.413103 39.529743 0.000000 0.000000 0.000000 1.709914 -0.482040 1.254739 -2.910803 0.642673 -1.436929 0.000000 0.000000 0.000000 0.000000 0.000000 0.000000 -4.566952 -0.353610 -2.516810 1.455310 -1.596792 -7.989415 0.000000 0.000000 0.000000 -5.921948 -1.063591 0.153972 -4.099497 0.645899 -9.991921 0.000000 0.000000 0.000000
37.898370 60.461245 -21.001990 4.407707 0.179664 0.590795 0.000000 0.000000 0.000000 -3.329206 -0.143730 -0.710956 0.370111 -0.804682 -0.450947 5.000000 0.000000 0.000000 0.000000 0.000000 0.000000 0.000000 0.000000 0.000000 17.770075 -20.907691 45.052227 0.000000 0.000000 0.000000 3.436726 -0.835937 3.131356 -5.805268 1.176974 -2.879511 86.952091 -9.592245 16.063329 0.000000 0.000000 0.000000 -2.134832 -0.691419 0.259966 -2.308776 -1.894618 -14.592425 0.000000 0.000000 0.000000 -13.559616 -3.313117 -7.671512 1.139823 1.340682 -0.497979 0.000000 0.000000 0.000000
42.358547 60.392115 -20.833418 3.988964 0.391442 1.584669 0.000000 0.000000 0.000000 -2.645251 -0.303824 -1.752327 0.580686 -1.044607 -0.613442 5.000000 0.000000 0.000000 0.000000 0.000000 0.000000 0.000000 0.000000 0.000000 0.000000 0.000000 0.000000 0.000000 0.000000 0.000000 4.031433 -0.781884 7.087314 -7.667380 1.725599 -5.300560 50.194745 -38.348720 44.541873 0.000000 0.000000 0.000000 -0.484064 -1.308918 4.403522 -6.201026 -0.820090 -18.172083 0.000000 0.000000 0.000000 -15.627659 -2.741592 -16.226422 0.432685 0.216411 8.576824 0.000000 0.000000 0.000000
45.875672 60.464704 -18.976519 5.217624 0.733414 3.222854 0.000000 0.000000 0.000000 -3.541694 -0.738172 -4.007640 1.037556 -1.565478 -0.778484 5.000000 0.000000 0.000000 0.000000 0.000000 0.000000 0.000000 0.000000 0.000000 0.000000 0.000000 0.000000 0.000000 0.000000 0.000000 4.294550 -0.851674 11.906321 -8.670619 2.395867 -8.260680 45.317023 -41.700605 47.831115 0.000000 0.000000 0.000000 -0.961337 -1.861243 5.885862 -4.592440 1.675155 -7.937879 0.000000 0.000000 0.000000 -16.759428 -1.613804 -18.743516 0.998637 0.289700 7.957369 0.000000 0.000000 0.000000
